<svg xmlns="http://www.w3.org/2000/svg" viewBox="0 0 1614.3750000000002 3097" width="1614.3750000000002" height="3097" style="--bg:#0d1117;--fg:#e6edf3;--line:#3d444d;--accent:#4493f8;--muted:#9198a1;background:var(--bg)">
<style>
  @import url('https://fonts.googleapis.com/css2?family=Inter:wght@400;500;600;700&amp;display=swap');
  text { font-family: 'Inter', system-ui, sans-serif; }
  svg {
    /* Derived from --bg and --fg (overridable via --line, --accent, etc.) */
    --_text:          var(--fg);
    --_text-sec:      var(--muted, color-mix(in srgb, var(--fg) 60%, var(--bg)));
    --_text-muted:    var(--muted, color-mix(in srgb, var(--fg) 40%, var(--bg)));
    --_text-faint:    color-mix(in srgb, var(--fg) 25%, var(--bg));
    --_line:          var(--line, color-mix(in srgb, var(--fg) 30%, var(--bg)));
    --_arrow:         var(--accent, color-mix(in srgb, var(--fg) 50%, var(--bg)));
    --_node-fill:     var(--surface, color-mix(in srgb, var(--fg) 3%, var(--bg)));
    --_node-stroke:   var(--border, color-mix(in srgb, var(--fg) 20%, var(--bg)));
    --_group-fill:    var(--bg);
    --_group-hdr:     color-mix(in srgb, var(--fg) 5%, var(--bg));
    --_inner-stroke:  color-mix(in srgb, var(--fg) 12%, var(--bg));
    --_key-badge:     color-mix(in srgb, var(--fg) 10%, var(--bg));
  }
</style>
<defs>
  <marker id="arrowhead" markerWidth="8" markerHeight="4.8" refX="8" refY="2.4" orient="auto">
    <polygon points="0 0, 8 2.4, 0 4.8" fill="var(--_arrow)" />
  </marker>
  <marker id="arrowhead-start" markerWidth="8" markerHeight="4.8" refX="0" refY="2.4" orient="auto-start-reverse">
    <polygon points="8 0, 0 2.4, 8 4.8" fill="var(--_arrow)" />
  </marker>
</defs>
<rect x="40" y="40" width="1421.3625000000002" height="163" rx="0" ry="0" fill="var(--_group-fill)" stroke="var(--_node-stroke)" stroke-width="1" />
<rect x="40" y="40" width="1421.3625000000002" height="28" rx="0" ry="0" fill="var(--_group-hdr)" stroke="var(--_node-stroke)" stroke-width="1" />
<text x="52" y="54" dy="0.35em" font-size="12" font-weight="600" fill="var(--_text-sec)">&quot;📥 INPUT LAYER&quot;</text>
<rect x="419.55" y="287" width="668.0750000000002" height="388" rx="0" ry="0" fill="var(--_group-fill)" stroke="var(--_node-stroke)" stroke-width="1" />
<rect x="419.55" y="287" width="668.0750000000002" height="28" rx="0" ry="0" fill="var(--_group-hdr)" stroke="var(--_node-stroke)" stroke-width="1" />
<text x="431.55" y="301" dy="0.35em" font-size="12" font-weight="600" fill="var(--_text-sec)">&quot;🔧 PREPROCESSING&quot;</text>
<rect x="332.625" y="743" width="876.95" height="1584" rx="0" ry="0" fill="var(--_group-fill)" stroke="var(--_node-stroke)" stroke-width="1" />
<rect x="332.625" y="743" width="876.95" height="28" rx="0" ry="0" fill="var(--_group-hdr)" stroke="var(--_node-stroke)" stroke-width="1" />
<text x="344.625" y="757" dy="0.35em" font-size="12" font-weight="600" fill="var(--_text-sec)">&quot;📌 EXTRACTIVE MODEL&quot;</text>
<rect x="352.625" y="779" width="383.45000000000005" height="820" rx="0" ry="0" fill="var(--_group-fill)" stroke="var(--_node-stroke)" stroke-width="1" />
<rect x="352.625" y="779" width="383.45000000000005" height="28" rx="0" ry="0" fill="var(--_group-hdr)" stroke="var(--_node-stroke)" stroke-width="1" />
<text x="364.625" y="793" dy="0.35em" font-size="12" font-weight="600" fill="var(--_text-sec)">&quot;TF-IDF Pipeline&quot;</text>
<rect x="756.075" y="779" width="433.50000000000006" height="584" rx="0" ry="0" fill="var(--_group-fill)" stroke="var(--_node-stroke)" stroke-width="1" />
<rect x="756.075" y="779" width="433.50000000000006" height="28" rx="0" ry="0" fill="var(--_group-hdr)" stroke="var(--_node-stroke)" stroke-width="1" />
<text x="768.075" y="793" dy="0.35em" font-size="12" font-weight="600" fill="var(--_text-sec)">&quot;Embedding Pipeline&quot;</text>
<rect x="1229.575" y="1215" width="344.80000000000007" height="1112" rx="0" ry="0" fill="var(--_group-fill)" stroke="var(--_node-stroke)" stroke-width="1" />
<rect x="1229.575" y="1215" width="344.80000000000007" height="28" rx="0" ry="0" fill="var(--_group-hdr)" stroke="var(--_node-stroke)" stroke-width="1" />
<text x="1241.575" y="1229" dy="0.35em" font-size="12" font-weight="600" fill="var(--_text-sec)">&quot;✨ ABSTRACTIVE MODEL&quot;</text>
<rect x="1249.575" y="1251" width="304.80000000000007" height="1056" rx="0" ry="0" fill="var(--_group-fill)" stroke="var(--_node-stroke)" stroke-width="1" />
<rect x="1249.575" y="1251" width="304.80000000000007" height="28" rx="0" ry="0" fill="var(--_group-hdr)" stroke="var(--_node-stroke)" stroke-width="1" />
<text x="1261.575" y="1265" dy="0.35em" font-size="12" font-weight="600" fill="var(--_text-sec)">&quot;BART-large-cnn&quot;</text>
<rect x="43.57499999999993" y="2658" width="475.20000000000005" height="152" rx="0" ry="0" fill="var(--_group-fill)" stroke="var(--_node-stroke)" stroke-width="1" />
<rect x="43.57499999999993" y="2658" width="475.20000000000005" height="28" rx="0" ry="0" fill="var(--_group-hdr)" stroke="var(--_node-stroke)" stroke-width="1" />
<text x="55.57499999999993" y="2672" dy="0.35em" font-size="12" font-weight="600" fill="var(--_text-sec)">&quot;📊 EVALUATION&quot;</text>
<rect x="650.9375" y="2411" width="864.1125000000002" height="646" rx="0" ry="0" fill="var(--_group-fill)" stroke="var(--_node-stroke)" stroke-width="1" />
<rect x="650.9375" y="2411" width="864.1125000000002" height="28" rx="0" ry="0" fill="var(--_group-hdr)" stroke="var(--_node-stroke)" stroke-width="1" />
<text x="662.9375" y="2425" dy="0.35em" font-size="12" font-weight="600" fill="var(--_text-sec)">&quot;📤 OUTPUT&quot;</text>
<polyline points="760.4375,163 760.4375,363" fill="none" stroke="var(--_line)" stroke-width="0.75" marker-end="url(#arrowhead)" />
<polyline points="760.4375,399 760.4375,599" fill="none" stroke="var(--_line)" stroke-width="0.75" marker-end="url(#arrowhead)" />
<polyline points="760.4375,635 760.4375,655 544.35,655 544.35,835" fill="none" stroke="var(--_line)" stroke-width="0.75" marker-end="url(#arrowhead)" />
<polyline points="760.4375,635 760.4375,655 972.825,655 972.825,835" fill="none" stroke="var(--_line)" stroke-width="0.75" marker-end="url(#arrowhead)" />
<polyline points="544.35,871 544.35,1071" fill="none" stroke="var(--_line)" stroke-width="0.75" marker-end="url(#arrowhead)" />
<polyline points="544.35,1107 544.35,1307" fill="none" stroke="var(--_line)" stroke-width="0.75" marker-end="url(#arrowhead)" />
<polyline points="544.35,1343 544.35,1543" fill="none" stroke="var(--_line)" stroke-width="0.75" marker-end="url(#arrowhead)" />
<polyline points="972.825,871 972.825,1071" fill="none" stroke="var(--_line)" stroke-width="0.75" marker-end="url(#arrowhead)" />
<polyline points="972.825,1107 972.825,1307" fill="none" stroke="var(--_line)" stroke-width="0.75" marker-end="url(#arrowhead)" />
<polyline points="544.35,1579 544.35,1797 590.7125,1797" fill="none" stroke="var(--_line)" stroke-width="0.75" marker-end="url(#arrowhead)" />
<polyline points="972.825,1343 972.825,1797 930.1625,1797" fill="none" stroke="var(--_line)" stroke-width="0.75" marker-end="url(#arrowhead)" />
<polyline points="760.4375,1815 760.4375,2015" fill="none" stroke="var(--_line)" stroke-width="0.75" marker-end="url(#arrowhead)" />
<polyline points="760.4375,2051 760.4375,2251" fill="none" stroke="var(--_line)" stroke-width="0.75" marker-end="url(#arrowhead)" />
<polyline points="760.4375,2287 760.4375,2487" fill="none" stroke="var(--_line)" stroke-width="0.75" marker-end="url(#arrowhead)" />
<polyline points="760.4375,163 760.4375,183 1401.9750000000001,183 1401.9750000000001,1307" fill="none" stroke="var(--_line)" stroke-width="0.75" marker-end="url(#arrowhead)" />
<polyline points="1401.9750000000001,1343 1401.9750000000001,1543" fill="none" stroke="var(--_line)" stroke-width="0.75" marker-end="url(#arrowhead)" />
<polyline points="1401.9750000000001,1579 1401.9750000000001,1779" fill="none" stroke="var(--_line)" stroke-width="0.75" marker-end="url(#arrowhead)" />
<polyline points="1401.9750000000001,1815 1401.9750000000001,2015" fill="none" stroke="var(--_line)" stroke-width="0.75" marker-end="url(#arrowhead)" />
<polyline points="1401.9750000000001,2051 1401.9750000000001,2251" fill="none" stroke="var(--_line)" stroke-width="0.75" marker-end="url(#arrowhead)" />
<polyline points="1401.9750000000001,2287 1401.9750000000001,2487" fill="none" stroke="var(--_line)" stroke-width="0.75" marker-end="url(#arrowhead)" />
<polyline points="188.82500000000005,163 188.82500000000005,2752 304.925,2752" fill="none" stroke="var(--_line)" stroke-width="0.75" marker-end="url(#arrowhead)" />
<polyline points="760.4375,2534 760.4375,2554 715.6875,2554 715.6875,2752 304.925,2752" fill="none" stroke="var(--_line)" stroke-width="0.75" marker-end="url(#arrowhead)" />
<polyline points="1401.9750000000001,2534 1401.9750000000001,2554 1152.65,2554 1152.65,2752 304.925,2752" fill="none" stroke="var(--_line)" stroke-width="0.75" marker-end="url(#arrowhead)" />
<polyline points="760.4375,163 760.4375,183 312.625,183 312.625,2752 328.9250000000001,2752" fill="none" stroke="var(--_line)" stroke-width="0.75" marker-end="url(#arrowhead)" />
<polyline points="760.4375,2534 760.4375,2554 1223.9375000000002,2554 1223.9375000000002,2752 496.77500000000015,2752" fill="none" stroke="var(--_line)" stroke-width="0.75" marker-end="url(#arrowhead)" />
<polyline points="1401.9750000000001,2534 1401.9750000000001,2554 1448.5125000000003,2554 1448.5125000000003,2752 496.77500000000015,2752" fill="none" stroke="var(--_line)" stroke-width="0.75" marker-end="url(#arrowhead)" />
<polyline points="185.25,2770 185.25,2830 1146.2250000000001,2830 1146.2250000000001,2993.5 1105.2625000000003,2993.5" fill="none" stroke="var(--_line)" stroke-width="0.75" marker-end="url(#arrowhead)" />
<polyline points="412.85000000000014,2770 412.85000000000014,2830 1232.15,2830 1232.15,2993.5 1273.1125000000002,2993.5" fill="none" stroke="var(--_line)" stroke-width="0.75" marker-end="url(#arrowhead)" />
<rect x="683.6625" y="123" width="153.55" height="33" fill="var(--_node-fill)" stroke="none" />
<line x1="683.6625" y1="123" x2="683.6625" y2="156" stroke="var(--_node-stroke)" stroke-width="0.75" />
<line x1="837.2125000000001" y1="123" x2="837.2125000000001" y2="156" stroke="var(--_node-stroke)" stroke-width="0.75" />
<ellipse cx="760.4375" cy="156" rx="76.775" ry="7" fill="var(--_node-fill)" stroke="var(--_node-stroke)" stroke-width="0.75" />
<ellipse cx="760.4375" cy="123" rx="76.775" ry="7" fill="var(--_node-fill)" stroke="var(--_node-stroke)" stroke-width="0.75" />
<rect x="62.00000000000004" y="123" width="253.65" height="33" fill="var(--_node-fill)" stroke="none" />
<line x1="62.00000000000004" y1="123" x2="62.00000000000004" y2="156" stroke="var(--_node-stroke)" stroke-width="0.75" />
<line x1="315.65000000000003" y1="123" x2="315.65000000000003" y2="156" stroke="var(--_node-stroke)" stroke-width="0.75" />
<ellipse cx="188.82500000000005" cy="156" rx="126.825" ry="7" fill="var(--_node-fill)" stroke="var(--_node-stroke)" stroke-width="0.75" />
<ellipse cx="188.82500000000005" cy="123" rx="126.825" ry="7" fill="var(--_node-fill)" stroke="var(--_node-stroke)" stroke-width="0.75" />
<rect x="572.8375" y="363" width="375.20000000000005" height="36" rx="0" ry="0" fill="var(--_node-fill)" stroke="var(--_node-stroke)" stroke-width="0.75" />
<rect x="608.5875" y="599" width="303.70000000000005" height="36" rx="0" ry="0" fill="var(--_node-fill)" stroke="var(--_node-stroke)" stroke-width="0.75" />
<rect x="590.7125" y="1779" width="339.45000000000005" height="36" rx="0" ry="0" fill="var(--_node-fill)" stroke="var(--_node-stroke)" stroke-width="0.75" />
<rect x="658.6375" y="2015" width="203.60000000000002" height="36" rx="0" ry="0" fill="var(--_node-fill)" stroke="var(--_node-stroke)" stroke-width="0.75" />
<rect x="658.6375" y="2251" width="203.60000000000002" height="36" rx="0" ry="0" fill="var(--_node-fill)" stroke="var(--_node-stroke)" stroke-width="0.75" />
<rect x="392.5" y="835" width="303.70000000000005" height="36" rx="0" ry="0" fill="var(--_node-fill)" stroke="var(--_node-stroke)" stroke-width="0.75" />
<rect x="403.225" y="1071" width="282.25" height="36" rx="0" ry="0" fill="var(--_node-fill)" stroke="var(--_node-stroke)" stroke-width="0.75" />
<rect x="374.625" y="1307" width="339.45000000000005" height="36" rx="0" ry="0" fill="var(--_node-fill)" stroke="var(--_node-stroke)" stroke-width="0.75" />
<rect x="467.57500000000005" y="1543" width="153.55" height="36" rx="0" ry="0" fill="var(--_node-fill)" stroke="var(--_node-stroke)" stroke-width="0.75" />
<rect x="778.075" y="835" width="389.50000000000006" height="36" rx="0" ry="0" fill="var(--_node-fill)" stroke="var(--_node-stroke)" stroke-width="0.75" />
<rect x="813.825" y="1071" width="318" height="36" rx="0" ry="0" fill="var(--_node-fill)" stroke="var(--_node-stroke)" stroke-width="0.75" />
<rect x="888.9000000000001" y="1307" width="167.85000000000002" height="36" rx="0" ry="0" fill="var(--_node-fill)" stroke="var(--_node-stroke)" stroke-width="0.75" />
<rect x="1271.575" y="1307" width="260.8" height="36" rx="0" ry="0" fill="var(--_node-fill)" stroke="var(--_node-stroke)" stroke-width="0.75" />
<rect x="1328.775" y="1543" width="146.4" height="36" rx="0" ry="0" fill="var(--_node-fill)" stroke="var(--_node-stroke)" stroke-width="0.75" />
<rect x="1289.45" y="1779" width="225.05" height="36" rx="0" ry="0" fill="var(--_node-fill)" stroke="var(--_node-stroke)" stroke-width="0.75" />
<rect x="1325.2" y="2015" width="153.55" height="36" rx="0" ry="0" fill="var(--_node-fill)" stroke="var(--_node-stroke)" stroke-width="0.75" />
<rect x="1343.075" y="2251" width="117.80000000000001" height="36" rx="0" ry="0" fill="var(--_node-fill)" stroke="var(--_node-stroke)" stroke-width="0.75" />
<rect x="65.57499999999999" y="2734" width="239.35000000000002" height="36" rx="0" ry="0" fill="var(--_node-fill)" stroke="var(--_node-stroke)" stroke-width="0.75" />
<rect x="328.9250000000001" y="2734" width="167.85000000000002" height="36" rx="0" ry="0" fill="var(--_node-fill)" stroke="var(--_node-stroke)" stroke-width="0.75" />
<rect x="672.9375" y="2494" width="175" height="33" fill="var(--_node-fill)" stroke="none" />
<line x1="672.9375" y1="2494" x2="672.9375" y2="2527" stroke="var(--_node-stroke)" stroke-width="0.75" />
<line x1="847.9375" y1="2494" x2="847.9375" y2="2527" stroke="var(--_node-stroke)" stroke-width="0.75" />
<ellipse cx="760.4375" cy="2527" rx="87.5" ry="7" fill="var(--_node-fill)" stroke="var(--_node-stroke)" stroke-width="0.75" />
<ellipse cx="760.4375" cy="2494" rx="87.5" ry="7" fill="var(--_node-fill)" stroke="var(--_node-stroke)" stroke-width="0.75" />
<rect x="1310.9" y="2494" width="182.15" height="33" fill="var(--_node-fill)" stroke="none" />
<line x1="1310.9" y1="2494" x2="1310.9" y2="2527" stroke="var(--_node-stroke)" stroke-width="0.75" />
<line x1="1493.0500000000002" y1="2494" x2="1493.0500000000002" y2="2527" stroke="var(--_node-stroke)" stroke-width="0.75" />
<ellipse cx="1401.9750000000001" cy="2527" rx="91.075" ry="7" fill="var(--_node-fill)" stroke="var(--_node-stroke)" stroke-width="0.75" />
<ellipse cx="1401.9750000000001" cy="2494" rx="91.075" ry="7" fill="var(--_node-fill)" stroke="var(--_node-stroke)" stroke-width="0.75" />
<rect x="1105.2625000000003" y="2977" width="167.85000000000002" height="33" fill="var(--_node-fill)" stroke="none" />
<line x1="1105.2625000000003" y1="2977" x2="1105.2625000000003" y2="3010" stroke="var(--_node-stroke)" stroke-width="0.75" />
<line x1="1273.1125000000002" y1="2977" x2="1273.1125000000002" y2="3010" stroke="var(--_node-stroke)" stroke-width="0.75" />
<ellipse cx="1189.1875000000002" cy="3010" rx="83.92500000000001" ry="7" fill="var(--_node-fill)" stroke="var(--_node-stroke)" stroke-width="0.75" />
<ellipse cx="1189.1875000000002" cy="2977" rx="83.92500000000001" ry="7" fill="var(--_node-fill)" stroke="var(--_node-stroke)" stroke-width="0.75" />
<text x="760.4375" y="139.5" text-anchor="middle" dy="0.35em" font-size="13" font-weight="500" fill="var(--_text)">&quot;📄 Article Text&quot;</text>
<text x="188.82500000000005" y="139.5" text-anchor="middle" dy="0.35em" font-size="13" font-weight="500" fill="var(--_text)">&quot;📝 Highlights&lt;br/&gt;(reference)&quot;</text>
<text x="760.4375" y="381" text-anchor="middle" dy="0.35em" font-size="13" font-weight="500" fill="var(--_text)">&quot;Sentence Tokenization&lt;br/&gt;(NLTK sent_tokenize)&quot;</text>
<text x="760.4375" y="617" text-anchor="middle" dy="0.35em" font-size="13" font-weight="500" fill="var(--_text)">&quot;Text Cleaning&lt;br/&gt;(lowercase, strip)&quot;</text>
<text x="760.4375" y="1797" text-anchor="middle" dy="0.35em" font-size="13" font-weight="500" fill="var(--_text)">&quot;Combine Scores&lt;br/&gt;50% TF-IDF + 50% Embed&quot;</text>
<text x="760.4375" y="2033" text-anchor="middle" dy="0.35em" font-size="13" font-weight="500" fill="var(--_text)">&quot;Select Top-K Sentences&quot;</text>
<text x="760.4375" y="2269" text-anchor="middle" dy="0.35em" font-size="13" font-weight="500" fill="var(--_text)">&quot;Restore Original Order&quot;</text>
<text x="544.35" y="853" text-anchor="middle" dy="0.35em" font-size="13" font-weight="500" fill="var(--_text)">&quot;Fit Vocabulary&lt;br/&gt;(training corpus)&quot;</text>
<text x="544.35" y="1089" text-anchor="middle" dy="0.35em" font-size="13" font-weight="500" fill="var(--_text)">&quot;Calculate TF&lt;br/&gt;(term frequency)&quot;</text>
<text x="544.35" y="1325" text-anchor="middle" dy="0.35em" font-size="13" font-weight="500" fill="var(--_text)">&quot;Calculate IDF&lt;br/&gt;(inverse document freq)&quot;</text>
<text x="544.35" y="1561" text-anchor="middle" dy="0.35em" font-size="13" font-weight="500" fill="var(--_text)">&quot;Score Sentences&quot;</text>
<text x="972.825" y="853" text-anchor="middle" dy="0.35em" font-size="13" font-weight="500" fill="var(--_text)">&quot;Load Sentence Transformer&lt;br/&gt;(all-MiniLM-L6-v2)&quot;</text>
<text x="972.825" y="1089" text-anchor="middle" dy="0.35em" font-size="13" font-weight="500" fill="var(--_text)">&quot;Encode Sentences&lt;br/&gt;(384-dim vectors)&quot;</text>
<text x="972.825" y="1325" text-anchor="middle" dy="0.35em" font-size="13" font-weight="500" fill="var(--_text)">&quot;Cosine Similarity&quot;</text>
<text x="1401.9750000000001" y="1325" text-anchor="middle" dy="0.35em" font-size="13" font-weight="500" fill="var(--_text)">&quot;Tokenize&lt;br/&gt;(max 1024 tokens)&quot;</text>
<text x="1401.9750000000001" y="1561" text-anchor="middle" dy="0.35em" font-size="13" font-weight="500" fill="var(--_text)">&quot;Encode Article&quot;</text>
<text x="1401.9750000000001" y="1797" text-anchor="middle" dy="0.35em" font-size="13" font-weight="500" fill="var(--_text)">&quot;Beam Search&lt;br/&gt;(beams=4)&quot;</text>
<text x="1401.9750000000001" y="2033" text-anchor="middle" dy="0.35em" font-size="13" font-weight="500" fill="var(--_text)">&quot;Generate Tokens&quot;</text>
<text x="1401.9750000000001" y="2269" text-anchor="middle" dy="0.35em" font-size="13" font-weight="500" fill="var(--_text)">&quot;Detokenize&quot;</text>
<text x="185.25" y="2752" text-anchor="middle" dy="0.35em" font-size="13" font-weight="500" fill="var(--_text)">&quot;ROUGE Scoring&lt;br/&gt;(1, 2, L)&quot;</text>
<text x="412.85000000000014" y="2752" text-anchor="middle" dy="0.35em" font-size="13" font-weight="500" fill="var(--_text)">&quot;Compression Ratio&quot;</text>
<text x="760.4375" y="2510.5" text-anchor="middle" dy="0.35em" font-size="13" font-weight="500" fill="var(--_text)">&quot;Extractive Summary&quot;</text>
<text x="1401.9750000000001" y="2510.5" text-anchor="middle" dy="0.35em" font-size="13" font-weight="500" fill="var(--_text)">&quot;Abstractive Summary&quot;</text>
<text x="1189.1875000000002" y="2993.5" text-anchor="middle" dy="0.35em" font-size="13" font-weight="500" fill="var(--_text)">&quot;Metrics Dashboard&quot;</text>
</svg>